<svg width="37" height="36" viewBox="0 0 37 36" fill="none" xmlns="http://www.w3.org/2000/svg">
<path fill-rule="evenodd" clip-rule="evenodd" d="M18.2773 33.9922C27.1143 33.9922 34.2773 26.8292 34.2773 17.9922C34.2773 9.15519 27.1143 1.99219 18.2773 1.99219C9.44034 1.99219 2.27734 9.15519 2.27734 17.9922C2.27734 26.8292 9.44034 33.9922 18.2773 33.9922ZM18.2773 35.9922C28.2183 35.9922 36.2773 27.9332 36.2773 17.9922C36.2773 8.05119 28.2183 -0.0078125 18.2773 -0.0078125C8.33634 -0.0078125 0.277344 8.05119 0.277344 17.9922C0.277344 27.9332 8.33634 35.9922 18.2773 35.9922Z" fill="#FFCB07"/>
<path fill-rule="evenodd" clip-rule="evenodd" d="M15.5613 15.2411C15.6683 15.6391 15.7073 16.0761 15.5773 16.4341C15.552 16.5034 15.5117 16.5663 15.4593 16.6183C15.4068 16.6702 15.3435 16.7099 15.2739 16.7344C15.2043 16.759 15.1302 16.7678 15.0568 16.7604C14.9833 16.7529 14.9125 16.7292 14.8493 16.6911C14.5819 16.5226 14.326 16.3365 14.0833 16.1341L13.8883 15.9741C13.7083 15.8281 13.5343 15.6861 13.3543 15.5511C12.8523 15.1761 12.4543 14.9781 12.1093 14.9951C11.7473 15.0131 11.3093 15.2661 10.7473 15.7101C10.5883 15.8351 10.4183 15.9771 10.2423 16.1251C9.85428 16.4491 9.43428 16.8001 9.03528 17.0561C8.96465 17.1016 8.88369 17.1285 8.79989 17.1345C8.71609 17.1404 8.63215 17.1251 8.55581 17.09C8.47947 17.055 8.4132 17.0012 8.36313 16.9338C8.31305 16.8663 8.28077 16.7873 8.26928 16.7041C8.21928 16.3391 8.29528 15.8831 8.43828 15.4371C8.60148 14.9345 8.8355 14.4577 9.13328 14.0211C9.75328 13.1141 10.7593 12.2591 12.1063 12.3151C13.4063 12.3701 14.3703 13.1321 14.9503 13.9621C15.2423 14.3781 15.4493 14.8251 15.5613 15.2411ZM20.9053 15.2411C20.7973 15.6391 20.7583 16.0761 20.8883 16.4341C20.9135 16.5036 20.9538 16.5666 21.0064 16.6186C21.0589 16.6707 21.1223 16.7104 21.192 16.735C21.2617 16.7596 21.336 16.7684 21.4096 16.7608C21.4831 16.7532 21.554 16.7294 21.6173 16.6911C21.8793 16.5331 22.1383 16.3311 22.3823 16.1341L22.5783 15.9741C22.7583 15.8281 22.9323 15.6861 23.1123 15.5511C23.6133 15.1761 24.0123 14.9781 24.3563 14.9951C24.7193 15.0131 25.1563 15.2661 25.7193 15.7101C25.8773 15.8351 26.0473 15.9771 26.2243 16.1251C26.6113 16.4491 27.0313 16.8001 27.4313 17.0561C27.5019 17.1014 27.5828 17.1281 27.6664 17.1339C27.7501 17.1397 27.8339 17.1244 27.9101 17.0894C27.9863 17.0543 28.0524 17.0006 28.1024 16.9333C28.1524 16.866 28.1847 16.7872 28.1963 16.7041C28.2463 16.3391 28.1703 15.8831 28.0283 15.4371C27.8651 14.9345 27.6311 14.4577 27.3333 14.0211C26.7133 13.1141 25.7063 12.2591 24.3593 12.3151C23.0593 12.3701 22.0963 13.1321 21.5153 13.9621C21.2405 14.3505 21.0342 14.7831 20.9053 15.2411ZM18.2753 30.9921C14.2373 30.9921 10.7373 27.9441 9.01728 23.4921C9.00045 23.4492 8.98378 23.4062 8.96728 23.3631C8.52128 22.1721 9.47528 20.9921 10.7483 20.9921H25.8033C27.0763 20.9921 28.0313 22.1721 27.5833 23.3631C27.5671 23.4062 27.5508 23.4492 27.5343 23.4921C25.8133 27.9441 22.3133 30.9921 18.2753 30.9921ZM25.5513 23.0641C25.2513 23.7921 24.9023 24.4601 24.5163 25.0641H12.0343C11.6858 24.5171 11.3805 23.9437 11.1213 23.3491V23.0641H25.5513Z" fill="#FFCB07"/>
<path fill-rule="evenodd" clip-rule="evenodd" d="M25.5469 27.0642C25.7739 26.7692 25.9909 26.4612 26.1969 26.1412C26.756 25.267 27.2203 24.3358 27.5819 23.3632C27.9649 22.3462 27.3239 21.3362 26.3349 21.0632C26.1613 21.0156 25.982 20.9918 25.8019 20.9922H10.7479C10.5678 20.9921 10.3885 21.0163 10.2149 21.0642C9.76437 21.1857 9.37469 21.4696 9.12092 21.8612C8.97865 22.0817 8.89062 22.3328 8.86403 22.5938C8.83743 22.8549 8.87303 23.1185 8.96792 23.3632C9.06899 23.629 9.17636 23.8924 9.28992 24.1532C9.59992 24.8582 9.95592 25.5232 10.3529 26.1412C10.5589 26.4612 10.7759 26.7692 11.0029 27.0632C12.8769 29.4942 15.4429 30.9922 18.2749 30.9922C21.1059 30.9922 23.6729 29.4942 25.5469 27.0642ZM25.5509 23.0642C25.2655 23.76 24.9191 24.4293 24.5159 25.0642H12.0339C11.6854 24.5172 11.3802 23.9438 11.1209 23.3492V23.0642H25.5509Z" fill="#FFCB07"/>
</svg>
