<svg width="18" height="18" viewBox="0 0 18 18" fill="none" xmlns="http://www.w3.org/2000/svg">
<g clip-path="url(#clip0_18456_49582)">
<path d="M3.16406 6.39844C2.00071 6.39844 1.05469 5.45242 1.05469 4.28906C1.05469 3.12571 2.00071 2.17969 3.16406 2.17969C4.32742 2.17969 5.27344 3.12571 5.27344 4.28906C5.27344 5.45242 4.32742 6.39844 3.16406 6.39844Z" fill="#666666"/>
<path d="M14.8359 6.39844C13.6726 6.39844 12.7266 5.45242 12.7266 4.28906C12.7266 3.12571 13.6726 2.17969 14.8359 2.17969C15.9993 2.17969 16.9453 3.12571 16.9453 4.28906C16.9453 5.45242 15.9993 6.39844 14.8359 6.39844Z" fill="#666666"/>
<path d="M9 5.27344C7.54618 5.27344 6.36328 4.09054 6.36328 2.63672C6.36328 1.1829 7.54618 0 9 0C10.4538 0 11.6367 1.1829 11.6367 2.63672C11.6367 4.09054 10.4538 5.27344 9 5.27344Z" fill="#666666"/>
<path d="M9.52539 5.32812V8.96623C9.52539 9.25771 9.28953 9.49358 8.99805 9.49358C8.70657 9.49358 8.4707 9.25771 8.4707 8.96623V5.32812C6.68652 5.58677 5.30664 7.11157 5.30664 8.96623V12.1303C5.30664 12.4218 5.5425 12.6576 5.83398 12.6576H7.01538L7.41809 17.5183C7.44073 17.7913 7.66939 18.0014 7.94336 18.0014H10.0527C10.3267 18.0014 10.5554 17.7913 10.578 17.5183L10.9807 12.6576H12.1621C12.4536 12.6576 12.6895 12.4218 12.6895 12.1303V8.96623C12.6895 7.11157 11.3096 5.58677 9.52539 5.32812Z" fill="#666666"/>
<path d="M4.21875 12.1992V9.03516C4.21875 8.2447 4.43145 7.51015 4.77461 6.85399C4.30109 6.57134 3.75448 6.39844 3.16406 6.39844C1.41929 6.39844 0 7.81773 0 9.5625V12.1992C0 12.4907 0.235863 12.7266 0.527344 12.7266H1.10464L1.5846 17.5252C1.61139 17.7945 1.8385 18 2.10938 18H4.21875C4.48963 18 4.71674 17.7945 4.74353 17.5252L5.13331 13.6284C4.59489 13.3757 4.21875 12.8323 4.21875 12.1992Z" fill="#666666"/>
<path d="M18.0005 9.5625C18.0005 7.81773 16.5812 6.39844 14.8364 6.39844C14.246 6.39844 13.6994 6.57134 13.2259 6.85399C13.569 7.51015 13.7817 8.2447 13.7817 9.03516V12.1992C13.7817 12.8323 13.4056 13.3757 12.8672 13.6284L13.257 17.5252C13.2838 17.7945 13.5109 18 13.7817 18H15.8911C16.162 18 16.3891 17.7945 16.4159 17.5252L16.8958 12.7266H17.4731C17.7646 12.7266 18.0005 12.4907 18.0005 12.1992V9.5625Z" fill="#666666"/>
</g>
<defs>
<clipPath id="clip0_18456_49582">
<rect width="18" height="18" fill="white"/>
</clipPath>
</defs>
</svg>
