<svg width="18" height="18" viewBox="0 0 18 18" fill="none" xmlns="http://www.w3.org/2000/svg">
<g clip-path="url(#clip0_18456_49533)">
<path d="M4.39411 4.27592H4.65163C5.043 4.27592 5.36024 3.95857 5.36024 3.56731V1.61187V0.880441C5.36024 0.48919 5.043 0.171875 4.65163 0.171875H4.39411C4.00279 0.171875 3.68555 0.48919 3.68555 0.880441V1.61191V3.56731C3.68555 3.95857 4.00279 4.27592 4.39411 4.27592Z" fill="#666666"/>
<path d="M13.484 4.26029H13.7416C14.1329 4.26029 14.4501 3.94298 14.4501 3.55169V1.42822V0.864779C14.4501 0.473565 14.1329 0.15625 13.7416 0.15625H13.484C13.0926 0.15625 12.7754 0.473565 12.7754 0.864779V1.42822V3.55165C12.7755 3.94298 13.0927 4.26029 13.484 4.26029Z" fill="#666666"/>
<path d="M16.8442 1.61719H15.0256V3.74062C15.0256 4.44897 14.4493 4.83966 13.7411 4.83966H13.4835C12.7752 4.83966 12.199 4.26338 12.199 3.55504V1.61719H5.93681V3.57259C5.93681 4.28094 5.36056 4.85722 4.65222 4.85722H4.3947C3.68639 4.85722 3.11015 4.28094 3.11015 3.57259V1.61719H1.14806C0.512876 1.61719 -0.00390625 2.13397 -0.00390625 2.76919V16.6892C-0.00390625 17.3245 0.512876 17.8412 1.14806 17.8412H16.8442C17.4793 17.8412 17.9961 17.3245 17.9961 16.6892V2.76919C17.9962 2.13401 17.4793 1.61719 16.8442 1.61719ZM16.8442 16.6892H1.1481L1.14806 6.17718H16.8444L16.845 16.6892C16.8449 16.6892 16.8447 16.6892 16.8442 16.6892Z" fill="#666666"/>
<path d="M9.59183 9.6974H11.6603C11.7422 9.6974 11.8087 9.63092 11.8087 9.54893V7.75784C11.8087 7.67585 11.7422 7.60938 11.6603 7.60938H9.59183C9.50984 7.60938 9.44336 7.67585 9.44336 7.75784V9.54893C9.44336 9.63092 9.50984 9.6974 9.59183 9.6974Z" fill="#666666"/>
<path d="M12.9668 9.6974H15.0353C15.1172 9.6974 15.1837 9.63092 15.1837 9.54893V7.75784C15.1837 7.67585 15.1172 7.60938 15.0353 7.60938H12.9668C12.8848 7.60938 12.8184 7.67585 12.8184 7.75784V9.54893C12.8184 9.63092 12.8848 9.6974 12.9668 9.6974Z" fill="#666666"/>
<path d="M2.83987 12.6349H4.90827C4.99026 12.6349 5.05673 12.5685 5.05673 12.4865V10.6953C5.05673 10.6134 4.99026 10.5469 4.90827 10.5469H2.83987C2.75788 10.5469 2.69141 10.6134 2.69141 10.6953V12.4865C2.69141 12.5685 2.75788 12.6349 2.83987 12.6349Z" fill="#666666"/>
<path d="M6.21487 12.6349H8.28327C8.36526 12.6349 8.43173 12.5685 8.43173 12.4865V10.6953C8.43173 10.6134 8.36526 10.5469 8.28327 10.5469H6.21487C6.13288 10.5469 6.06641 10.6134 6.06641 10.6953V12.4865C6.06641 12.5685 6.13288 12.6349 6.21487 12.6349Z" fill="#666666"/>
<path d="M9.59183 12.6349H11.6602C11.7422 12.6349 11.8087 12.5685 11.8087 12.4865V10.6953C11.8087 10.6134 11.7422 10.5469 11.6602 10.5469H9.59183C9.50984 10.5469 9.44336 10.6134 9.44336 10.6953V12.4865C9.44336 12.5685 9.50984 12.6349 9.59183 12.6349Z" fill="#666666"/>
<path d="M12.9668 12.6349H15.0353C15.1172 12.6349 15.1837 12.5685 15.1837 12.4865V10.6953C15.1837 10.6134 15.1172 10.5469 15.0353 10.5469H12.9668C12.8848 10.5469 12.8184 10.6134 12.8184 10.6953V12.4865C12.8184 12.5685 12.8848 12.6349 12.9668 12.6349Z" fill="#666666"/>
<path d="M4.90823 13.4766H2.83987C2.75788 13.4766 2.69141 13.543 2.69141 13.625V15.4162C2.69141 15.4981 2.75788 15.5646 2.83987 15.5646H4.90827C4.99026 15.5646 5.05673 15.4981 5.05673 15.4162V13.625C5.0567 13.543 4.99022 13.4766 4.90823 13.4766Z" fill="#666666"/>
<path d="M8.28327 13.4766H6.21487C6.13288 13.4766 6.06641 13.543 6.06641 13.625V15.4162C6.06641 15.4981 6.13288 15.5646 6.21487 15.5646H8.28327C8.36526 15.5646 8.43173 15.4981 8.43173 15.4162V13.625C8.43173 13.543 8.36526 13.4766 8.28327 13.4766Z" fill="#666666"/>
<path d="M11.6603 13.4766H9.59183C9.50984 13.4766 9.44336 13.543 9.44336 13.625V15.4162C9.44336 15.4981 9.50984 15.5646 9.59183 15.5646H11.6603C11.7422 15.5646 11.8087 15.4981 11.8087 15.4162V13.625C11.8087 13.543 11.7422 13.4766 11.6603 13.4766Z" fill="#666666"/>
<path d="M15.0353 13.4766H12.9668C12.8848 13.4766 12.8184 13.543 12.8184 13.625V15.4162C12.8184 15.4981 12.8848 15.5646 12.9668 15.5646H15.0353C15.1172 15.5646 15.1837 15.4981 15.1837 15.4162V13.625C15.1837 13.543 15.1172 13.4766 15.0353 13.4766Z" fill="#666666"/>
</g>
<defs>
<clipPath id="clip0_18456_49533">
<rect width="18" height="18" fill="white"/>
</clipPath>
</defs>
</svg>
