<svg width="18" height="18" viewBox="0 0 18 18" fill="none" xmlns="http://www.w3.org/2000/svg">
<g clip-path="url(#clip0_18456_49497)">
<path d="M14.3866 2.79065C14.2099 2.07079 13.7964 1.43121 13.2125 0.974683C12.6286 0.518153 11.9081 0.271181 11.1669 0.273453C10.4257 0.275725 9.70682 0.527108 9.1257 0.987208C8.54459 1.44731 8.13502 2.08941 7.96281 2.81033C7.93316 2.83638 7.90933 2.86836 7.89285 2.90422C7.87638 2.94008 7.86763 2.979 7.86719 3.01846V4.08158C7.86719 4.15618 7.89682 4.22771 7.94956 4.28046C8.00231 4.3332 8.07385 4.36283 8.14844 4.36283H8.69125C8.90682 4.36283 9.11356 4.2772 9.266 4.12477C9.41843 3.97233 9.50406 3.76559 9.50406 3.55002C9.50406 3.33445 9.41843 3.12771 9.266 2.97528C9.11356 2.82284 8.90682 2.73721 8.69125 2.73721H8.56469C8.74301 2.18681 9.09069 1.70684 9.55806 1.36582C10.0254 1.02479 10.5886 0.840166 11.1672 0.838294C11.7457 0.836423 12.3101 1.0174 12.7797 1.3554C13.2492 1.69339 13.6 2.1711 13.7819 2.72033H13.6806C13.4751 2.73248 13.2821 2.82266 13.1409 2.97244C12.9997 3.12222 12.9211 3.32028 12.9211 3.52611C12.9211 3.73195 12.9997 3.93001 13.1409 4.07979C13.2821 4.22957 13.4751 4.31975 13.6806 4.3319H14.2094C14.284 4.3319 14.3555 4.30226 14.4082 4.24952C14.461 4.19678 14.4906 4.12524 14.4906 4.05065V3.00158C14.4895 2.961 14.4797 2.92113 14.4617 2.88471C14.4437 2.8483 14.4181 2.81621 14.3866 2.79065Z" fill="#666666"/>
<path d="M15.615 8.22656C15.3676 7.6632 14.9618 7.18387 14.447 6.84683C13.9322 6.5098 13.3306 6.32959 12.7153 6.32812H12.465C12.3904 6.32812 12.3189 6.35776 12.2661 6.4105C12.2134 6.46325 12.1838 6.53478 12.1838 6.60938C12.1837 6.87679 12.0775 7.13325 11.8884 7.32234C11.6993 7.51143 11.4429 7.61766 11.1755 7.61766C10.9081 7.61766 10.6516 7.51143 10.4625 7.32234C10.2734 7.13325 10.1672 6.87679 10.1672 6.60938C10.1672 6.53478 10.1376 6.46325 10.0848 6.4105C10.0321 6.35776 9.96053 6.32812 9.88594 6.32812H9.63562C9.02272 6.33231 8.42413 6.51379 7.91209 6.85065C7.40006 7.18752 6.99645 7.66538 6.75 8.22656H15.615Z" fill="#666666"/>
<path d="M17.4375 17.7188H0.5625C0.487908 17.7188 0.416371 17.6891 0.363626 17.6364C0.310882 17.5836 0.28125 17.5121 0.28125 17.4375C0.28125 17.3629 0.310882 17.2914 0.363626 17.2386C0.416371 17.1859 0.487908 17.1562 0.5625 17.1562H17.4375C17.5121 17.1562 17.5836 17.1859 17.6364 17.2386C17.6891 17.2914 17.7188 17.3629 17.7188 17.4375C17.7188 17.5121 17.6891 17.5836 17.6364 17.6364C17.5836 17.6891 17.5121 17.7188 17.4375 17.7188Z" fill="#666666"/>
<path d="M3.02344 15.1641V16.0725C3.02344 16.1471 2.99381 16.2186 2.94106 16.2714C2.88832 16.3241 2.81678 16.3537 2.74219 16.3537C2.6676 16.3537 2.59606 16.3241 2.54331 16.2714C2.49057 16.2186 2.46094 16.1471 2.46094 16.0725V15.1641C2.12459 15.2293 1.82141 15.4095 1.60334 15.6738C1.38527 15.938 1.26588 16.2699 1.26562 16.6125V16.7306C1.26562 16.8052 1.29526 16.8768 1.348 16.9295C1.40075 16.9822 1.47228 17.0119 1.54688 17.0119H3.9375C4.01209 17.0119 4.08363 16.9822 4.13637 16.9295C4.18912 16.8768 4.21875 16.8052 4.21875 16.7306V16.6125C4.2185 16.2699 4.09911 15.938 3.88103 15.6738C3.66296 15.4095 3.35978 15.2293 3.02344 15.1641Z" fill="#666666"/>
<path d="M10.7259 12.6884L10.65 13.1328L11.0466 12.9359C11.0869 12.9148 11.1318 12.9037 11.1773 12.9037C11.2229 12.9037 11.2678 12.9148 11.3081 12.9359L11.7047 13.1441L11.6288 12.6997C11.6214 12.6549 11.6249 12.609 11.6391 12.5659C11.6533 12.5228 11.6778 12.4838 11.7103 12.4522L12.0309 12.1372L11.5866 12.0725C11.5415 12.0657 11.4988 12.0481 11.462 12.0212C11.4253 11.9942 11.3956 11.9588 11.3756 11.9178L11.1788 11.5156L10.9678 11.9066C10.9478 11.9475 10.9182 11.983 10.8814 12.0099C10.8447 12.0369 10.8019 12.0545 10.7569 12.0612L10.3125 12.1259L10.6331 12.4409C10.6677 12.4714 10.6942 12.5099 10.7104 12.5531C10.7266 12.5963 10.7319 12.6427 10.7259 12.6884Z" fill="#666666"/>
<path d="M17.531 9.59688C17.5351 9.47254 17.5141 9.34865 17.4692 9.23265C17.4242 9.11665 17.3563 9.01094 17.2694 8.92188C17.1845 8.83287 17.0823 8.76205 16.9692 8.71371C16.8561 8.66536 16.7343 8.6405 16.6113 8.64063H5.7466C5.62358 8.6405 5.5018 8.66536 5.38868 8.71371C5.27555 8.76205 5.17341 8.83287 5.08848 8.92188C4.99935 9.01443 4.93036 9.12443 4.88582 9.24496C4.84129 9.36548 4.82219 9.49392 4.82973 9.62219L5.58066 15.6184V16.2372C5.58649 16.4426 5.67185 16.6378 5.81875 16.7816C5.96566 16.9253 6.16263 17.0064 6.36816 17.0078H15.9785C16.184 17.0064 16.381 16.9253 16.5279 16.7816C16.6748 16.6378 16.7602 16.4426 16.766 16.2372V15.6184L17.5169 9.62219C17.5169 9.62219 17.531 9.60531 17.531 9.59688ZM9.45348 11.8469C9.46978 11.7969 9.49976 11.7525 9.54003 11.7187C9.5803 11.6849 9.62924 11.663 9.68129 11.6556L10.5419 11.5291L10.9272 10.7472C10.9506 10.7004 10.9865 10.661 11.0309 10.6335C11.0754 10.606 11.1267 10.5914 11.1789 10.5914C11.2312 10.5914 11.2825 10.606 11.327 10.6335C11.3714 10.661 11.4073 10.7004 11.4307 10.7472L11.8132 11.5291L12.6738 11.6556C12.7259 11.6632 12.7748 11.6852 12.815 11.7192C12.8552 11.7532 12.885 11.7977 12.9011 11.8478C12.9173 11.8979 12.919 11.9516 12.9061 12.0026C12.8933 12.0536 12.8664 12.1001 12.8285 12.1366L12.2097 12.7384L12.356 13.5991C12.3646 13.6507 12.3586 13.7036 12.3387 13.752C12.3188 13.8004 12.2859 13.8423 12.2435 13.873C12.2011 13.9036 12.151 13.9219 12.0989 13.9257C12.0467 13.9295 11.9945 13.9186 11.9482 13.8944L11.1804 13.4978L10.4069 13.8944C10.3606 13.9186 10.3084 13.9295 10.2562 13.9257C10.204 13.9219 10.154 13.9036 10.1116 13.873C10.0692 13.8423 10.0363 13.8004 10.0164 13.752C9.99651 13.7036 9.99053 13.6507 9.9991 13.5991L10.1454 12.7384L9.52379 12.1309C9.4861 12.0941 9.45953 12.0474 9.4471 11.9962C9.43466 11.945 9.43688 11.8913 9.45348 11.8413V11.8469ZM16.2035 16.2372C16.2013 16.2957 16.1767 16.351 16.1349 16.3919C16.093 16.4327 16.037 16.4559 15.9785 16.4566H6.38223C6.32373 16.4559 6.26774 16.4327 6.22585 16.3919C6.18396 16.351 6.15939 16.2957 6.15723 16.2372V15.9053H16.2119L16.2035 16.2372Z" fill="#666666"/>
<path d="M12.5968 3.53453C12.5966 3.30023 12.6721 3.07212 12.8119 2.88413C12.9518 2.69614 13.1486 2.5583 13.373 2.4911C13.1685 2.08155 12.8536 1.73735 12.4638 1.49734C12.0739 1.25733 11.6248 1.13108 11.167 1.13283C10.7093 1.13459 10.2611 1.26428 9.87313 1.50727C9.48517 1.75026 9.17287 2.09687 8.97148 2.50797C9.20398 2.57287 9.40848 2.71283 9.55314 2.90606C9.6978 3.09929 9.7745 3.33493 9.77129 3.57629C9.76808 3.81765 9.68514 4.05117 9.53539 4.24049C9.38565 4.4298 9.17749 4.56428 8.94336 4.62297C9.13835 5.059 9.45628 5.42869 9.85821 5.68675C10.2601 5.94481 10.7286 6.08003 11.2062 6.07585C11.6839 6.07167 12.1499 5.92827 12.5473 5.66322C12.9446 5.39817 13.256 5.02297 13.4434 4.5836C13.2044 4.53019 12.9907 4.39739 12.8369 4.20687C12.6832 4.01635 12.5985 3.77935 12.5968 3.53453Z" fill="#666666"/>
</g>
<defs>
<clipPath id="clip0_18456_49497">
<rect width="18" height="18" fill="white"/>
</clipPath>
</defs>
</svg>
