<svg width="18" height="18" viewBox="0 0 18 18" fill="none" xmlns="http://www.w3.org/2000/svg">
<g clip-path="url(#clip0_18456_49520)">
<path d="M15.3281 10.5858C16.2018 10.5858 16.91 9.87753 16.91 9.00384C16.91 8.13014 16.2018 7.42188 15.3281 7.42188C14.4544 7.42188 13.7461 8.13014 13.7461 9.00384C13.7461 9.87753 14.4544 10.5858 15.3281 10.5858Z" fill="#666666"/>
<path d="M2.67181 10.5858C3.5455 10.5858 4.25377 9.87753 4.25377 9.00384C4.25377 8.13014 3.5455 7.42188 2.67181 7.42188C1.79811 7.42188 1.08984 8.13014 1.08984 9.00384C1.08984 9.87753 1.79811 10.5858 2.67181 10.5858Z" fill="#666666"/>
<path d="M8.99993 16.9139C9.87363 16.9139 10.5819 16.2057 10.5819 15.332C10.5819 14.4583 9.87363 13.75 8.99993 13.75C8.12624 13.75 7.41797 14.4583 7.41797 15.332C7.41797 16.2057 8.12624 16.9139 8.99993 16.9139Z" fill="#666666"/>
<path d="M8.99993 4.25768C9.87363 4.25768 10.5819 3.54941 10.5819 2.67571C10.5819 1.80202 9.87363 1.09375 8.99993 1.09375C8.12624 1.09375 7.41797 1.80202 7.41797 2.67571C7.41797 3.54941 8.12624 4.25768 8.99993 4.25768Z" fill="#666666"/>
<path d="M5.5779 1.48141C5.39868 0.854709 5.2962 0.412744 5.29262 0.400369C5.22308 0.121768 4.94244 -0.0512638 4.66539 0.0136318C4.38629 0.0764534 4.20809 0.350942 4.26424 0.631582C4.36998 1.15627 4.61417 1.95196 4.58351 1.84523C5.11393 3.69525 6.12076 5.37561 7.4816 6.73648L8.99983 8.25471L10.5181 6.73648C11.8789 5.37564 12.8857 3.69525 13.4161 1.84523C13.4468 1.73818 13.6282 1.16354 13.7354 0.631582C13.7916 0.350942 13.6134 0.0764534 13.3343 0.0136318C13.0541 -0.0507365 12.7766 0.121768 12.707 0.400369C12.7034 0.412744 12.6015 0.853689 12.4228 1.47832C11.965 2.90117 10.9073 5.30913 8.99983 5.30913C7.09342 5.3091 6.03674 2.90423 5.5779 1.48141Z" fill="#666666"/>
<path d="M9.74609 8.99698L11.2643 10.5152C12.6252 11.876 14.3056 12.8829 16.1556 13.4132C16.2626 13.4439 16.8373 13.6253 17.3692 13.7326C17.6499 13.7923 17.9244 13.611 17.9872 13.3314C18.05 13.0518 17.8785 12.7732 17.6004 12.7042C17.5881 12.7006 17.1823 12.5986 16.5576 12.4199C15.1348 11.9621 12.6917 10.9044 12.6917 8.99698C12.6917 7.09057 15.1317 6.03389 16.5545 5.57505C17.1813 5.39583 17.5881 5.29336 17.6004 5.28977C17.8785 5.22024 18.05 4.94216 17.9872 4.66254C17.9244 4.38292 17.6499 4.20166 17.3692 4.26139C16.8445 4.36714 16.084 4.61125 16.1907 4.58067C14.3407 5.11108 12.6252 6.11788 11.2643 7.47875L9.74609 8.99698Z" fill="#666666"/>
<path d="M0.0129586 13.3314C0.0757801 13.611 0.350268 13.7923 0.630909 13.7326C1.15559 13.6268 1.95129 13.3826 1.84456 13.4132C3.69457 12.8829 5.37494 11.876 6.73581 10.5152L8.25404 8.99698L6.73581 7.47875C5.37497 6.11791 3.69457 5.11108 1.84456 4.58067C1.73751 4.54998 1.16287 4.36865 0.630909 4.26139C0.350268 4.20166 0.0757801 4.38292 0.0129586 4.66254C-0.049863 4.94216 0.121622 5.22076 0.399696 5.28977C0.41207 5.29339 0.853016 5.39534 1.47765 5.57403C2.9005 6.03182 5.30846 7.08955 5.30846 8.99698C5.30846 10.9034 2.90359 11.9601 1.48074 12.4189C0.854036 12.5981 0.41207 12.7006 0.399696 12.7042C0.121622 12.7737 -0.049863 13.0518 0.0129586 13.3314Z" fill="#666666"/>
<path d="M12.4218 16.5155C12.601 17.1422 12.7034 17.5842 12.707 17.5965C12.776 17.8751 13.0531 18.044 13.3343 17.9833C13.6134 17.9204 13.7916 17.646 13.7354 17.3653C13.7225 17.3015 13.4184 16.1595 13.4161 16.1517C12.8857 14.3016 11.8789 12.6213 10.5181 11.2604L8.99983 9.74219L7.4816 11.2604C6.12076 12.6213 5.11393 14.3016 4.58351 16.1517C4.58126 16.1595 4.27714 17.3015 4.26424 17.3653C4.20809 17.646 4.38629 17.9204 4.66539 17.9833C4.94416 18.0456 5.22298 17.8758 5.29262 17.5965C5.29624 17.5842 5.39819 17.1432 5.57688 16.5186C6.03466 15.0957 7.0924 12.6878 8.99983 12.6878C10.9062 12.6878 11.9629 15.0927 12.4218 16.5155Z" fill="#666666"/>
</g>
<defs>
<clipPath id="clip0_18456_49520">
<rect width="18" height="18" fill="white"/>
</clipPath>
</defs>
</svg>
