<svg width="16" height="18" viewBox="0 0 16 18" fill="none" xmlns="http://www.w3.org/2000/svg">
<path fill-rule="evenodd" clip-rule="evenodd" d="M2.92298 12.6437L4.35905 15.1812L4.49788 15.101C4.56201 15.0641 4.6382 15.0541 4.70969 15.0733L8.57983 16.1094C9.14437 16.2606 9.46556 16.1613 9.96425 15.9068L15.2799 12.6337C15.5407 12.4732 15.5729 12.0309 15.4185 11.7821C15.0731 11.2256 14.1015 11.7004 13.7064 11.9304L10.7665 13.6428C10.5421 13.7751 10.2955 13.8652 10.0387 13.9088C9.31193 14.0309 8.21414 13.6873 7.56375 13.5014C7.35404 13.4417 7.14117 13.3807 6.93276 13.3249C6.8608 13.3057 6.79942 13.2587 6.76213 13.1942C6.72484 13.1297 6.71469 13.053 6.73392 12.9811C6.75315 12.9091 6.80018 12.8477 6.86467 12.8104C6.92916 12.7731 7.00582 12.763 7.07778 12.7822C7.30415 12.8429 7.51242 12.9023 7.71763 12.9609C8.14819 13.084 8.56545 13.2031 8.98582 13.29C9.30296 13.3287 9.56393 13.2317 9.6521 12.9026C9.73159 12.6058 9.54417 12.3269 9.26429 12.2292C8.38018 12.0672 7.52304 11.7573 6.84906 11.5136C5.87843 11.1627 5.62281 11.0807 4.66554 11.6349L2.92312 12.6437H2.92298ZM12.162 8.19091C12.0376 8.38294 11.8672 8.54087 11.6662 8.6504C11.4653 8.75992 11.2402 8.81757 11.0114 8.81813L11.552 10.0732L12.2705 8.91562L13.6052 9.18896L12.8651 7.4707L12.6148 7.57789C12.567 7.59619 12.5266 7.63003 12.5003 7.67397L12.1622 8.19105L12.162 8.19091ZM6.2707 9.54885L7.61279 9.31436L8.29732 10.4923L9.08482 8.80094C8.82175 8.84307 8.5521 8.80784 8.30868 8.69953C8.06526 8.59123 7.85856 8.41453 7.71372 8.19091L7.37556 7.67383C7.34921 7.62989 7.30888 7.59605 7.26102 7.57775L7.20044 7.5518L6.2707 9.54885ZM8.49817 4.68196C8.4467 4.62896 8.41815 4.55784 8.41869 4.48396C8.41924 4.41008 8.44883 4.33938 8.50107 4.28714C8.55331 4.23491 8.62401 4.20532 8.69789 4.20478C8.77177 4.20425 8.84289 4.2328 8.89589 4.28428L9.43058 4.81897L10.9899 3.40386C11.045 3.35374 11.1177 3.32756 11.1921 3.33106C11.2665 3.33456 11.3364 3.36747 11.3865 3.42254C11.4366 3.47762 11.4628 3.55034 11.4593 3.62472C11.4558 3.6991 11.4229 3.76904 11.3678 3.81916L9.62123 5.40421C9.59519 5.43066 9.56418 5.45169 9.52997 5.46609C9.49577 5.48049 9.45906 5.48798 9.42195 5.48813C9.38483 5.48828 9.34806 5.48108 9.31374 5.46695C9.27943 5.45282 9.24825 5.43203 9.222 5.4058L8.49817 4.68196ZM10.43 0.728749L10.9245 1.09898C11.053 1.1978 11.209 1.25453 11.371 1.26144L11.9878 1.29575C12.1654 1.30398 12.3354 1.37033 12.4715 1.4846C12.6077 1.59887 12.7026 1.75472 12.7415 1.92817L12.8824 2.5297C12.9174 2.68798 13.0003 2.83162 13.1199 2.94103L13.5704 3.36382C13.7011 3.48427 13.7887 3.64435 13.8195 3.81942C13.8504 3.99449 13.8229 4.17485 13.7413 4.33276L13.4625 4.88411C13.3876 5.02784 13.3588 5.1912 13.3801 5.3519L13.4534 5.96534C13.4761 6.14167 13.4403 6.32059 13.3513 6.47455C13.2624 6.62851 13.1254 6.74899 12.9613 6.81742L12.3934 7.06067C12.2436 7.12257 12.1165 7.22919 12.0295 7.36597L11.6914 7.88305C11.5954 8.03273 11.453 8.14674 11.2859 8.20753C11.1189 8.26833 10.9365 8.27254 10.7668 8.21953L10.1754 8.04083C10.0208 7.99192 9.85493 7.99192 9.70037 8.04083L9.10908 8.21953C8.93938 8.27254 8.75697 8.26833 8.58991 8.20753C8.42285 8.14674 8.28039 8.03273 8.18447 7.88305L7.84633 7.36597C7.75935 7.22919 7.63228 7.12257 7.48247 7.06067L6.91455 6.81742C6.75049 6.74896 6.61348 6.62849 6.52459 6.47454C6.43571 6.32058 6.39987 6.14169 6.42261 5.96538L6.49591 5.35194C6.5172 5.19124 6.4884 5.02788 6.41344 4.88415L6.13472 4.33279C6.05307 4.17488 6.02556 3.99452 6.05643 3.81945C6.0873 3.64438 6.17484 3.48431 6.30558 3.36385L6.75621 2.94106C6.8758 2.83165 6.95874 2.68801 6.99369 2.52973L7.1346 1.92821C7.17353 1.75476 7.26838 1.59891 7.40455 1.48463C7.54072 1.37036 7.71067 1.30399 7.88824 1.29575L8.50506 1.26144C8.66706 1.25453 8.82298 1.19779 8.95154 1.09898L9.44612 0.728749C9.58745 0.620912 9.7603 0.5625 9.93808 0.5625C10.1159 0.5625 10.2887 0.620912 10.43 0.728749ZM9.93785 2.11158C9.48342 2.11158 9.03919 2.24633 8.66134 2.49879C8.28349 2.75125 7.98899 3.11009 7.81509 3.52993C7.64118 3.94977 7.59567 4.41175 7.68432 4.85745C7.77297 5.30315 7.9918 5.71255 8.31313 6.03388C8.63446 6.35522 9.04386 6.57405 9.48956 6.66271C9.93525 6.75137 10.3972 6.70587 10.8171 6.53196C11.2369 6.35806 11.5958 6.06357 11.8482 5.68572C12.1007 5.30788 12.2355 4.86365 12.2355 4.40922C12.2355 3.79986 11.9934 3.21545 11.5625 2.78456C11.1316 2.35367 10.5472 2.11159 9.93785 2.11158ZM2.05817 12.2577L4.38552 16.3698C4.43942 16.4657 4.45317 16.5791 4.42377 16.6852C4.39438 16.7912 4.32422 16.8813 4.22862 16.9358L3.437 17.3838C3.34106 17.4377 3.22769 17.4515 3.12164 17.4221C3.01559 17.3927 2.92548 17.3225 2.87099 17.2269L0.543643 13.1148C0.489735 13.0189 0.475977 12.9055 0.505375 12.7995C0.534772 12.6934 0.604936 12.6033 0.700545 12.5488L1.49205 12.1008C1.58799 12.0469 1.70137 12.0331 1.80742 12.0625C1.91347 12.0919 2.00357 12.1621 2.05807 12.2577L2.05817 12.2577ZM1.5245 12.8742C1.46919 12.8823 1.41753 12.9066 1.37603 12.9441C1.33454 12.9815 1.30509 13.0304 1.2914 13.0846C1.27771 13.1388 1.28039 13.1959 1.29912 13.2485C1.31784 13.3012 1.35177 13.3471 1.39659 13.3805C1.44142 13.4139 1.49515 13.4333 1.55097 13.4361C1.60679 13.439 1.66221 13.4252 1.71021 13.3966C1.75822 13.3679 1.79665 13.3257 1.82065 13.2752C1.84465 13.2247 1.85315 13.1683 1.84506 13.113C1.83969 13.0762 1.82714 13.0409 1.80813 13.009C1.78911 12.9772 1.764 12.9494 1.73424 12.9272C1.70447 12.905 1.67062 12.8889 1.63464 12.8798C1.59865 12.8707 1.56123 12.8688 1.5245 12.8742Z" fill="#666666"/>
</svg>
