<svg width="18" height="18" viewBox="0 0 18 18" fill="none" xmlns="http://www.w3.org/2000/svg">
<g clip-path="url(#clip0_18456_49553)">
<path d="M9 0C4.02926 0 0 4.02926 0 9C0 13.9707 4.02926 18 9 18C13.9704 18 18 13.9707 18 9C18 4.02926 13.9707 0 9 0ZM14.6183 14.6183C13.1175 16.1191 11.1224 16.9453 9 16.9453C6.87762 16.9453 4.8825 16.1188 3.38168 14.6183C1.88086 13.1175 1.05469 11.1224 1.05469 9C1.05469 6.87762 1.88121 4.8825 3.38168 3.38168C4.8825 1.88086 6.87762 1.05469 9 1.05469C11.1224 1.05469 13.1175 1.88121 14.6183 3.38168C16.1191 4.8825 16.9453 6.87762 16.9453 9C16.9453 11.1224 16.1188 13.1175 14.6183 14.6183ZM11.115 6.49336H12.5156L12.1307 7.97098H11.1013C10.9937 8.61996 10.7452 9.14977 10.3556 9.56039C9.96574 9.97137 9.41133 10.2864 8.69273 10.5057L11.5358 13.9932V14.098H8.90297L5.68898 10.2607L5.68195 8.9093H7.33465C8.00227 8.89523 8.43398 8.5827 8.63016 7.97098H5.4791L5.86406 6.49336H8.57391C8.36859 6.05004 7.96711 5.81871 7.36945 5.80008H5.48578L5.93402 3.90234H12.523L12.138 5.37996H10.7167C10.922 5.70937 11.0552 6.08063 11.1157 6.49336H11.115Z" fill="#666666"/>
</g>
<defs>
<clipPath id="clip0_18456_49553">
<rect width="18" height="18" fill="white"/>
</clipPath>
</defs>
</svg>
