<svg width="18" height="18" viewBox="0 0 18 18" fill="none" xmlns="http://www.w3.org/2000/svg">
<g clip-path="url(#clip0_18456_49566)">
<path fill-rule="evenodd" clip-rule="evenodd" d="M14.1748 10.716H10.2322C10.5575 9.73979 10.7304 8.91812 10.7589 8.21753C10.8262 6.56473 10.0458 5.91057 9.3793 5.65249C9.35143 5.64154 9.32242 5.63376 9.29282 5.62929C8.77641 5.54769 8.59254 5.79065 8.47072 6.06523L8.45473 6.10123C8.43688 6.14066 8.42522 6.18262 8.42017 6.22561C8.25536 7.63556 7.65329 8.95854 6.69843 10.0089V17.8857C6.80494 17.9247 6.91374 17.9572 7.02422 17.9829C7.05413 17.99 7.08472 17.9937 7.11545 17.9942C7.4455 17.9977 7.8389 17.9995 8.29262 17.9995C8.74522 17.9995 9.2577 17.9977 9.82642 17.9942H13.5406C13.7578 17.9942 13.9711 17.9366 14.1586 17.8271C14.3462 17.7177 14.5013 17.5604 14.6082 17.3713C14.715 17.1822 14.7697 16.9681 14.7666 16.751C14.7635 16.5338 14.7028 16.3214 14.5907 16.1354C14.8386 15.9476 15.0058 15.6726 15.0582 15.366C15.1107 15.0595 15.0445 14.7445 14.8732 14.4849C15.1137 14.2809 15.2663 13.992 15.2991 13.6783C15.3319 13.3646 15.2424 13.0503 15.0493 12.801C15.2187 12.6287 15.3334 12.4103 15.379 12.173C15.4246 11.9358 15.3991 11.6904 15.3056 11.4676C15.2122 11.2449 15.055 11.0547 14.8538 10.921C14.6526 10.7873 14.4164 10.716 14.1748 10.7162V10.716ZM5.87415 3.64475C5.84919 3.56782 5.80265 3.49968 5.74008 3.44843C5.6775 3.39718 5.60153 3.36498 5.52118 3.35566L4.36947 3.22316L3.88782 2.16946C3.85435 2.09576 3.80037 2.03326 3.73232 1.98942C3.66427 1.94559 3.58504 1.92228 3.50409 1.92228C3.42315 1.92228 3.34392 1.94559 3.27587 1.98942C3.20782 2.03326 3.15384 2.09576 3.12036 2.16946L2.63872 3.22316L1.48704 3.35566C1.40669 3.36489 1.33069 3.39701 1.26808 3.44821C1.20548 3.49941 1.15891 3.56752 1.13392 3.64444C1.10893 3.72136 1.10658 3.80384 1.12715 3.88205C1.14771 3.96027 1.19032 4.03093 1.24991 4.08561L2.10357 4.8696L1.87376 6.00574C1.85788 6.08496 1.86507 6.16707 1.89445 6.24232C1.92384 6.31758 1.9742 6.38283 2.03955 6.43033C2.10491 6.47782 2.18252 6.50558 2.26317 6.51029C2.34382 6.51501 2.42414 6.49649 2.49458 6.45694L3.50399 5.88702L4.51361 6.45694C4.58403 6.49668 4.66439 6.51535 4.74512 6.51071C4.82585 6.50608 4.90355 6.47835 4.96896 6.43081C5.03438 6.38327 5.08475 6.31794 5.11409 6.24258C5.14342 6.16723 5.15048 6.08503 5.13443 6.00578L4.90461 4.86963L5.75828 4.08565C5.81781 4.03099 5.86037 3.96038 5.88091 3.88222C5.90145 3.80406 5.89909 3.72165 5.87412 3.64479L5.87415 3.64475ZM16.8652 3.64475C16.8902 3.7216 16.8925 3.80402 16.872 3.88218C16.8515 3.96034 16.8089 4.03095 16.7494 4.08561L15.8957 4.8696L16.1255 6.00574C16.1416 6.08499 16.1345 6.16718 16.1052 6.24253C16.0758 6.31788 16.0254 6.38321 15.96 6.43074C15.8946 6.47828 15.8169 6.50602 15.7362 6.51066C15.6555 6.51529 15.5751 6.49663 15.5047 6.4569L14.4953 5.88698L13.4858 6.4569C13.4154 6.49664 13.335 6.51531 13.2543 6.51068C13.1736 6.50605 13.0959 6.47831 13.0305 6.43077C12.9651 6.38324 12.9147 6.3179 12.8854 6.24255C12.856 6.16719 12.849 6.08499 12.865 6.00574L13.0948 4.8696L12.2412 4.08561C12.1816 4.03093 12.139 3.96027 12.1184 3.88205C12.0978 3.80384 12.1002 3.72136 12.1252 3.64444C12.1502 3.56752 12.1967 3.49941 12.2593 3.44821C12.3219 3.39701 12.3979 3.36489 12.4783 3.35566L13.6296 3.22316L14.1115 2.16946C14.1449 2.09576 14.1989 2.03327 14.267 1.98944C14.335 1.94561 14.4142 1.9223 14.4952 1.9223C14.5761 1.9223 14.6553 1.94561 14.7233 1.98944C14.7914 2.03327 14.8454 2.09576 14.8788 2.16946L15.3607 3.22316L16.5121 3.35566C16.5924 3.36496 16.6684 3.39716 16.731 3.44841C16.7936 3.49966 16.8401 3.56781 16.8651 3.64475H16.8652ZM11.8394 2.06339C11.8143 1.98636 11.7678 1.9181 11.7053 1.86667C11.6427 1.81524 11.5667 1.78279 11.4863 1.77314L10.0036 1.60397L9.38328 0.245459C9.34943 0.172174 9.29531 0.110113 9.22731 0.0666143C9.15932 0.023116 9.08028 0 8.99956 0C8.91884 0 8.83981 0.023116 8.77181 0.0666143C8.70381 0.110113 8.64969 0.172174 8.61585 0.245459L7.99541 1.60386L6.5128 1.77303C6.43251 1.78245 6.3566 1.81471 6.29409 1.86597C6.23158 1.91724 6.18508 1.98536 6.16012 2.06225C6.13516 2.13914 6.13278 2.22158 6.15326 2.29979C6.17374 2.378 6.21622 2.44869 6.27567 2.50347L7.37487 3.51323L7.07892 4.97573C7.06292 5.05497 7.07002 5.13714 7.09938 5.21246C7.12873 5.28778 7.17911 5.35308 7.24451 5.40058C7.30992 5.44809 7.3876 5.47581 7.4683 5.48043C7.54901 5.48506 7.62934 5.4664 7.69975 5.42668L8.99954 4.6935L10.2993 5.42675C10.3697 5.46646 10.4501 5.48511 10.5308 5.48048C10.6115 5.47585 10.6891 5.44813 10.7545 5.40062C10.8199 5.35312 10.8703 5.28782 10.8997 5.21251C10.929 5.1372 10.9361 5.05504 10.9201 4.9758L10.6243 3.5133L11.7234 2.50347C11.7829 2.44894 11.8255 2.37846 11.8461 2.30041C11.8667 2.22237 11.8644 2.14006 11.8395 2.06328L11.8394 2.06339ZM5.85468 10.7923C5.78038 10.6742 5.67735 10.5769 5.55522 10.5094C5.43309 10.4419 5.29584 10.4064 5.1563 10.4064H2.24438C2.02548 10.4065 1.81559 10.4936 1.66078 10.6483C1.50598 10.8031 1.41889 11.013 1.41863 11.2319V17.1735C1.41881 17.3925 1.50586 17.6025 1.66066 17.7574C1.81547 17.9123 2.02539 17.9994 2.24438 17.9997H5.1563C5.29581 17.9996 5.43302 17.9642 5.55515 17.8968C5.67727 17.8293 5.78032 17.7321 5.85468 17.614V10.7923ZM2.48565 11.956C2.48565 11.8441 2.5301 11.7368 2.60922 11.6577C2.68833 11.5786 2.79564 11.5341 2.90753 11.5341H3.21715C3.32904 11.5341 3.43634 11.5786 3.51546 11.6577C3.59458 11.7368 3.63902 11.8441 3.63902 11.956C3.63902 12.0679 3.59458 12.1752 3.51546 12.2543C3.43634 12.3334 3.32904 12.3779 3.21715 12.3779H2.90756C2.85216 12.3779 2.7973 12.367 2.74611 12.3458C2.69492 12.3246 2.64841 12.2935 2.60923 12.2543C2.57005 12.2152 2.53897 12.1686 2.51777 12.1175C2.49657 12.0663 2.48565 12.0114 2.48565 11.956Z" fill="#666666"/>
</g>
<defs>
<clipPath id="clip0_18456_49566">
<rect width="18" height="18" fill="white"/>
</clipPath>
</defs>
</svg>
