<svg width="18" height="18" viewBox="0 0 18 18" fill="none" xmlns="http://www.w3.org/2000/svg">
<g clip-path="url(#clip0_18456_49571)">
<path d="M15.365 2.10855H15.8922V2.63569C15.8922 2.92706 16.1279 3.16283 16.4193 3.16283C16.7107 3.16283 16.9464 2.92706 16.9464 2.63569V2.10855H17.4736C17.7649 2.10855 18.0007 1.87278 18.0007 1.58141C18.0007 1.29005 17.7649 1.05428 17.4736 1.05428H16.9464V0.527138C16.9464 0.235771 16.7107 0 16.4193 0C16.1279 0 15.8922 0.235771 15.8922 0.527138V1.05428H15.365C15.0737 1.05428 14.8379 1.29005 14.8379 1.58141C14.8379 1.87278 15.0737 2.10855 15.365 2.10855Z" fill="#666666"/>
<path d="M17.4736 10.6168H16.9464V10.0896C16.9464 9.79827 16.7107 9.5625 16.4193 9.5625C16.1279 9.5625 15.8922 9.79827 15.8922 10.0896V10.6168H15.365C15.0737 10.6168 14.8379 10.8525 14.8379 11.1439C14.8379 11.4353 15.0737 11.6711 15.365 11.6711H15.8922V12.1982C15.8922 12.4896 16.1279 12.7253 16.4193 12.7253C16.7107 12.7253 16.9464 12.4896 16.9464 12.1982V11.6711H17.4736C17.7649 11.6711 18.0007 11.4353 18.0007 11.1439C18.0007 10.8525 17.7649 10.6168 17.4736 10.6168Z" fill="#666666"/>
<path d="M17.4965 13.4997C17.2021 13.4909 16.955 13.7015 16.9364 13.9918C16.8949 14.6355 16.6456 15.2281 16.2548 15.7209C15.998 15.1939 15.4618 14.8268 14.8371 14.8268H13.7829H12.7286C12.106 14.8268 11.5716 15.1915 11.3138 15.7156C10.8781 15.167 10.62 14.4896 10.62 13.7725C10.62 12.1128 11.9132 10.7276 13.5641 10.619C13.8549 10.5999 14.0747 10.3487 14.0557 10.0584C14.0361 9.767 13.7725 9.55028 13.4951 9.56676C12.2162 9.65131 11.1109 10.3192 10.3978 11.289L10.3959 11.2923L8.13061 10.0367C8.32625 9.55098 8.43417 9.02089 8.43417 8.46603C8.43417 8.04263 8.37116 7.63368 8.25452 7.24785L10.1831 6.38805L10.1841 6.39023C10.9232 7.60394 12.2349 8.43088 13.7829 8.43088C15.954 8.43088 17.8432 6.74854 17.9887 4.50104C18.0072 4.21069 17.7869 3.95998 17.4965 3.94093C17.2021 3.93218 16.955 4.14272 16.9364 4.43307C16.8949 5.07674 16.6456 5.66938 16.2548 6.16215C15.9981 5.63509 15.4619 5.26802 14.8372 5.26802H13.7829H12.7286C12.1061 5.26802 11.5717 5.6327 11.3138 6.15685C10.8781 5.60827 10.6201 4.93083 10.6201 4.21375C10.6201 2.55407 11.9132 1.16879 13.5641 1.0602C13.8549 1.04115 14.0748 0.78995 14.0557 0.499603C14.0361 0.208763 13.7726 0.000789808 13.4951 0.00799403C11.2919 0.153695 9.56579 2.00072 9.56579 4.21378C9.56579 4.63033 9.63482 5.0365 9.75272 5.4256L7.82522 6.28494C7.08526 5.06542 5.74475 4.24892 4.2171 4.24892C1.89179 4.24892 0 6.14072 0 8.46603C0 9.88013 0.699688 11.1338 1.77097 11.8993C1.79315 11.9178 1.81711 11.9342 1.84217 11.9489C2.51902 12.4119 3.33692 12.6831 4.2171 12.6831C5.09728 12.6831 5.91519 12.4119 6.59203 11.9489C6.61709 11.9342 6.64102 11.9178 6.66323 11.8993C7.02896 11.638 7.35122 11.3196 7.61728 10.9575L9.86872 12.2055C9.6733 12.6913 9.56579 13.2205 9.56579 13.7726C9.56579 16.0531 11.4292 17.9897 13.7829 17.9897C15.954 17.9897 17.8432 16.3073 17.9887 14.0598C18.0072 13.7695 17.7869 13.5187 17.4965 13.4997ZM6.69968 10.4235C6.44531 9.88997 5.90075 9.5203 5.27138 9.5203H4.2171H3.16283C2.53346 9.5203 1.98889 9.88997 1.73453 10.4235C1.30874 9.88462 1.05428 9.20451 1.05428 8.46603C1.05428 6.72204 2.47312 5.3032 4.2171 5.3032C5.96109 5.3032 7.37993 6.72204 7.37993 8.46603C7.37993 9.20451 7.12546 9.88462 6.69968 10.4235Z" fill="#666666"/>
<path d="M4.21618 9.5222C5.08957 9.5222 5.79759 8.81418 5.79759 7.94079C5.79759 7.0674 5.08957 6.35938 4.21618 6.35938C3.34279 6.35938 2.63477 7.0674 2.63477 7.94079C2.63477 8.81418 3.34279 9.5222 4.21618 9.5222Z" fill="#666666"/>
<path d="M13.7826 5.2722C14.656 5.2722 15.364 4.56418 15.364 3.69079C15.364 2.8174 14.656 2.10938 13.7826 2.10938C12.9092 2.10938 12.2012 2.8174 12.2012 3.69079C12.2012 4.56418 12.9092 5.2722 13.7826 5.2722Z" fill="#666666"/>
<path d="M13.7826 14.8269C14.656 14.8269 15.364 14.1189 15.364 13.2455C15.364 12.3721 14.656 11.6641 13.7826 11.6641C12.9092 11.6641 12.2012 12.3721 12.2012 13.2455C12.2012 14.1189 12.9092 14.8269 13.7826 14.8269Z" fill="#666666"/>
</g>
<defs>
<clipPath id="clip0_18456_49571">
<rect width="18" height="18" fill="white"/>
</clipPath>
</defs>
</svg>
