<svg width="18" height="18" viewBox="0 0 18 18" fill="none" xmlns="http://www.w3.org/2000/svg">
<g clip-path="url(#clip0_18456_49508)">
<path d="M16.5 8.25H15.5625C15.252 8.25 15 7.998 15 7.6875V5.8125C15 5.502 15.252 5.25 15.5625 5.25H16.5C17.3273 5.25 18 5.92275 18 6.75C18 7.57725 17.3273 8.25 16.5 8.25Z" fill="#666666"/>
<path d="M11.4375 8.25H10.5C9.67275 8.25 9 7.57725 9 6.75C9 5.92275 9.67275 5.25 10.5 5.25H11.4375C11.748 5.25 12 5.502 12 5.8125V7.6875C12 7.998 11.748 8.25 11.4375 8.25Z" fill="#666666"/>
<path d="M16.6875 6.1875C16.377 6.1875 16.125 5.9355 16.125 5.625V3.75C16.125 2.3025 14.9475 1.125 13.5 1.125C12.0525 1.125 10.875 2.3025 10.875 3.75V5.625C10.875 5.9355 10.623 6.1875 10.3125 6.1875C10.002 6.1875 9.75 5.9355 9.75 5.625V3.75C9.75 1.68225 11.4323 0 13.5 0C15.5678 0 17.25 1.68225 17.25 3.75V5.625C17.25 5.9355 16.998 6.1875 16.6875 6.1875Z" fill="#666666"/>
<path d="M9 9.345V15C9 15.4125 8.6625 15.75 8.25 15.75C7.8375 15.75 7.5 15.4125 7.5 15V3C7.5 2.5875 7.8375 2.25 8.25 2.25C8.325 2.25 8.3925 2.2575 8.46 2.28C8.7 1.455 9.135 0.7125 9.72 0.1125C9.555 0.0375 9.375 0 9.1875 0H7.3125C6.5925 0 6 0.5925 6 1.3125V16.6875C6 17.4075 6.5925 18 7.3125 18H9.1875C9.9075 18 10.5 17.4075 10.5 16.6875V9.75C9.9525 9.75 9.4425 9.6 9 9.345Z" fill="#666666"/>
<path d="M0 15.75V16.6875C0 17.4075 0.5925 18 1.3125 18H3.1875C3.9075 18 4.5 17.4075 4.5 16.6875V15.75H0Z" fill="#666666"/>
<path d="M4.5 14.25V5.8125C4.5 5.0925 3.9075 4.5 3.1875 4.5H1.3125C0.5925 4.5 0 5.0925 0 5.8125V14.25H4.5Z" fill="#666666"/>
<path d="M12 15.75V16.6875C12 17.4075 12.5925 18 13.3125 18H15.1875C15.9075 18 16.5 17.4075 16.5 16.6875V15.75H12Z" fill="#666666"/>
<path d="M16.5 9.75V14.25H12V9.675C12.87 9.4275 13.5 8.6325 13.5 7.6875C13.5 8.8275 14.4225 9.75 15.5625 9.75H16.5Z" fill="#666666"/>
</g>
<defs>
<clipPath id="clip0_18456_49508">
<rect width="18" height="18" fill="white"/>
</clipPath>
</defs>
</svg>
