<svg width="18" height="18" viewBox="0 0 18 18" fill="none" xmlns="http://www.w3.org/2000/svg">
<path d="M3.375 15.75C3.37498 15.8239 3.38952 15.897 3.41778 15.9653C3.44604 16.0335 3.48747 16.0956 3.53971 16.1478C3.59195 16.2 3.65396 16.2415 3.72222 16.2697C3.79047 16.298 3.86363 16.3125 3.9375 16.3125H14.0625C14.1364 16.3125 14.2095 16.298 14.2778 16.2697C14.346 16.2415 14.4081 16.2 14.4603 16.1478C14.5125 16.0956 14.554 16.0335 14.5822 15.9653C14.6105 15.897 14.625 15.8239 14.625 15.75V14.0625H3.375V15.75Z" fill="#666666"/>
<path d="M16.0914 4.61535C16.0076 4.55171 15.9076 4.51275 15.8029 4.50285C15.6981 4.49295 15.5926 4.51251 15.4984 4.55932L11.5452 6.53576L9.52238 1.47876C9.48064 1.37433 9.40855 1.28482 9.31544 1.22176C9.22232 1.1587 9.11244 1.125 8.99998 1.125C8.88752 1.125 8.77764 1.1587 8.68453 1.22176C8.59141 1.28482 8.51933 1.37433 8.47758 1.47876L6.45473 6.53576L2.50157 4.55932C2.40738 4.51221 2.30185 4.49249 2.19699 4.50241C2.09214 4.51233 1.99218 4.55149 1.90849 4.61543C1.8248 4.67937 1.76074 4.76552 1.72361 4.86408C1.68648 4.96264 1.67777 5.06964 1.69847 5.17291L3.25138 12.9375H14.7486L16.3015 5.17291C16.3222 5.06962 16.3135 4.96259 16.2763 4.86402C16.2392 4.76544 16.1751 4.67928 16.0914 4.61535ZM8.99998 10.6875C8.66606 10.6462 8.3615 10.476 8.15132 10.2133C7.94113 9.95057 7.84196 9.61609 7.87498 9.28125C7.84196 8.94641 7.94112 8.61192 8.15131 8.34918C8.3615 8.08645 8.66606 7.91628 8.99998 7.875C9.33391 7.91627 9.63847 8.08644 9.84866 8.34918C10.0589 8.61191 10.158 8.94641 10.125 9.28125C10.158 9.61609 10.0588 9.95058 9.84866 10.2133C9.63847 10.476 9.33391 10.6462 8.99998 10.6875Z" fill="#666666"/>
</svg>
