<svg width="13" height="13" viewBox="0 0 13 13" fill="none" xmlns="http://www.w3.org/2000/svg">
<path d="M10.445 6.45312H8.26083C7.99467 6.45312 7.75863 6.618 7.67703 6.86184C7.46067 7.50684 6.84219 7.93981 6.13875 7.93981C5.43507 7.93981 4.81683 7.50684 4.60059 6.86184C4.51875 6.618 4.28295 6.45312 4.01655 6.45312H1.83255C1.49355 6.45312 1.21875 6.71712 1.21875 7.0434V10.4099C1.21875 10.7356 1.49355 10.9999 1.83255 10.9999H10.4451C10.7843 10.9999 11.0588 10.7356 11.0588 10.4099V7.0434C11.0586 6.71712 10.7841 6.45312 10.445 6.45312Z" fill="#1642DD"/>
<path d="M4.43858 4.61372H5.23694V6.67628C5.23694 6.76448 5.31098 6.8354 5.40206 6.8354H6.8801C6.97154 6.8354 7.04522 6.76448 7.04522 6.67628V4.61372H7.84418C7.90586 4.61372 7.9625 4.58024 7.9907 4.5278C8.00459 4.50201 8.01082 4.47279 8.00866 4.44357C8.00649 4.41436 7.99601 4.38638 7.97846 4.36292L6.27002 2.06636C6.25429 2.04567 6.23398 2.0289 6.21068 2.01739C6.18738 2.00587 6.16173 1.99992 6.13574 2H6.13538C6.08198 2 6.0323 2.02484 6.0011 2.06696L4.3037 4.36304C4.28632 4.38658 4.27597 4.41456 4.27385 4.44374C4.27172 4.47293 4.27791 4.50211 4.2917 4.52792C4.3199 4.58084 4.3769 4.61372 4.43858 4.61372Z" fill="#1642DD"/>
</svg>
