<svg width="13" height="13" viewBox="0 0 13 13" fill="none" xmlns="http://www.w3.org/2000/svg">
<path d="M10.445 6.54688H8.26083C7.99467 6.54688 7.75863 6.382 7.67703 6.13816C7.46067 5.49316 6.84219 5.06019 6.13875 5.06019C5.43507 5.06019 4.81683 5.49316 4.60059 6.13816C4.51875 6.382 4.28295 6.54688 4.01655 6.54688H1.83255C1.49355 6.54688 1.21875 6.28288 1.21875 5.9566V2.59012C1.21875 2.26444 1.49355 2.00008 1.83255 2.00008H10.4451C10.7843 2.00008 11.0588 2.26444 11.0588 2.59012V5.9566C11.0586 6.28288 10.7841 6.54688 10.445 6.54688Z" fill="#FE4145"/>
<path d="M4.43858 8.38628H5.23694V6.32372C5.23694 6.23552 5.31098 6.1646 5.40206 6.1646H6.8801C6.97154 6.1646 7.04522 6.23552 7.04522 6.32372V8.38628H7.84418C7.90586 8.38628 7.9625 8.41976 7.9907 8.4722C8.00459 8.49799 8.01082 8.52721 8.00866 8.55643C8.00649 8.58564 7.99601 8.61362 7.97846 8.63708L6.27002 10.9336C6.25429 10.9543 6.23398 10.9711 6.21068 10.9826C6.18738 10.9941 6.16173 11.0001 6.13574 11H6.13538C6.08198 11 6.0323 10.9752 6.0011 10.933L4.3037 8.63696C4.28632 8.61342 4.27597 8.58544 4.27385 8.55626C4.27172 8.52707 4.27791 8.49789 4.2917 8.47208C4.3199 8.41916 4.3769 8.38628 4.43858 8.38628Z" fill="#FE4145"/>
</svg>
