<svg width="32" height="32" viewBox="0 0 32 32" fill="none" xmlns="http://www.w3.org/2000/svg">
<rect x="1.07031" y="0.5" width="30.43" height="30.43" rx="15.215" fill="white"/>
<rect x="1.07031" y="0.5" width="30.43" height="30.43" rx="15.215" stroke="#FE4145"/>
<path d="M21.6093 11.0303C21.7798 11.0303 21.9433 11.098 22.0639 11.2186C22.1845 11.3392 22.2522 11.5027 22.2522 11.6732C22.2522 11.8437 22.1845 12.0073 22.0639 12.1278C21.9433 12.2484 21.7798 12.3161 21.6093 12.3161L20.9664 12.3161L20.9644 12.3618L20.3646 20.7654C20.3415 21.0898 20.1963 21.3934 19.9583 21.615C19.7203 21.8367 19.4072 21.9599 19.082 21.9599L13.8493 21.9599C13.524 21.9599 13.2109 21.8367 12.9729 21.615C12.7349 21.3934 12.5897 21.0898 12.5666 20.7654L11.9668 12.3624L11.9655 12.3161L11.3226 12.3161C11.1521 12.3161 10.9886 12.2484 10.868 12.1278C10.7474 12.0073 10.6797 11.8437 10.6797 11.6732C10.6797 11.5027 10.7474 11.3392 10.868 11.2186C10.9886 11.098 11.1521 11.0303 11.3226 11.0303L21.6093 11.0303ZM17.7518 9.10156C17.9223 9.10156 18.0858 9.1693 18.2064 9.28987C18.327 9.41044 18.3947 9.57397 18.3947 9.74448C18.3947 9.91499 18.327 10.0785 18.2064 10.1991C18.0858 10.3197 17.9223 10.3874 17.7518 10.3874L15.1801 10.3874C15.0096 10.3874 14.8461 10.3197 14.7255 10.1991C14.6049 10.0785 14.5372 9.91499 14.5372 9.74448C14.5372 9.57397 14.6049 9.41044 14.7255 9.28987C14.8461 9.1693 15.0096 9.10156 15.1801 9.10156L17.7518 9.10156Z" fill="#FE4145"/>
</svg>
