<svg width="32" height="32" viewBox="0 0 32 32" fill="none" xmlns="http://www.w3.org/2000/svg">
<rect x="0.640625" y="0.5" width="30.4293" height="30.4281" rx="15.214" fill="white"/>
<rect x="0.640625" y="0.5" width="30.4293" height="30.4281" rx="15.214" stroke="#93268F"/>
<path d="M20.829 8.09118C20.762 8.14229 20.3647 8.52516 19.9514 8.93986L19.1992 9.69692L20.5378 11.0326L21.8729 12.3712L22.6285 11.6185C23.5447 10.7057 23.5697 10.6739 23.5697 10.4434C23.5717 10.3616 23.5598 10.2801 23.5345 10.2023C23.4834 10.1029 21.4915 8.10468 21.3859 8.04729C21.3032 8.01576 21.2151 8.00054 21.1265 8.00245C21.0735 7.99654 21.0199 8.00135 20.9687 8.01659C20.9176 8.03183 20.8701 8.0572 20.829 8.09118Z" fill="#93268F"/>
<path d="M13.7871 15.1123L9.13787 19.7651L8.63832 21.2701C8.1002 22.8903 8.07802 22.993 8.20436 23.1989C8.24806 23.265 8.30464 23.3216 8.37071 23.3653C8.57901 23.4902 8.68124 23.468 10.2994 22.9313L11.8048 22.4327L16.4637 17.7765L21.1226 13.1203L19.7942 11.7899C19.0641 11.0598 18.459 10.4609 18.4493 10.4609C18.4397 10.4609 16.3422 12.5566 13.7871 15.1123Z" fill="#93268F"/>
</svg>
