<svg width="32" height="33" viewBox="0 0 32 33" fill="none" xmlns="http://www.w3.org/2000/svg">
<rect x="1.07031" y="1.38281" width="30.43" height="30.43" rx="15.215" fill="white"/>
<rect x="1.07031" y="1.38281" width="30.43" height="30.43" rx="15.215" stroke="#93268F"/>
<g clip-path="url(#clip0_18626_69076)">
<path d="M22.7365 17.2876C22.9198 17.2876 23.0956 17.2148 23.2253 17.0851C23.3549 16.9555 23.4277 16.7797 23.4277 16.5963C23.4277 16.413 23.3549 16.2371 23.2253 16.1075C23.0956 15.9779 22.9198 15.905 22.7365 15.905L16.9758 15.905L16.9758 10.1444C16.9758 9.96106 16.903 9.78523 16.7734 9.65559C16.6437 9.52596 16.4679 9.45312 16.2845 9.45312C16.1012 9.45312 15.9254 9.52596 15.7957 9.65559C15.6661 9.78523 15.5933 9.96106 15.5933 10.1444L15.5933 15.905L9.83263 15.905C9.6493 15.905 9.47347 15.9779 9.34383 16.1075C9.21419 16.2371 9.14136 16.413 9.14136 16.5963C9.14136 16.7797 9.21419 16.9555 9.34383 17.0851C9.47347 17.2148 9.6493 17.2876 9.83263 17.2876L15.5933 17.2876L15.5933 23.0482C15.5933 23.2316 15.6661 23.4074 15.7957 23.537C15.9254 23.6667 16.1012 23.7395 16.2845 23.7395C16.4679 23.7395 16.6437 23.6667 16.7734 23.537C16.903 23.4074 16.9758 23.2316 16.9758 23.0482L16.9758 17.2876L22.7365 17.2876Z" fill="#93268F"/>
</g>
<defs>
<clipPath id="clip0_18626_69076">
<rect width="15.43" height="15.43" fill="white" transform="translate(24 8.88281) rotate(90)"/>
</clipPath>
</defs>
</svg>
