<svg width="58" height="39" viewBox="0 0 58 39" fill="none" xmlns="http://www.w3.org/2000/svg">
<g clip-path="url(#clip0_1039_205)">
<path d="M-0.000213623 19.4966L7.87047 18.1077C7.81903 19.047 7.74598 20.0064 7.92191 20.9365L-0.000213623 19.5481V19.4966Z" fill="#93268F"/>
<path d="M23.3032 0L23.277 7.97408L20.5233 7.43239L23.2518 0H23.3032Z" fill="#93268F"/>
<path d="M32.6142 24.9495L35.0546 12.3945L38.3171 12.3533L40.7416 19.0336L43.6465 12.3425L46.8612 12.3487L48.407 24.9495H45.1661L44.4454 17.7476L41.1799 24.8986L39.8475 24.9526L37.1663 17.7471L35.8551 24.9495H32.6142Z" fill="black"/>
<path d="M13.1176 24.9495L19.9332 12.397L23.4852 12.343L26.2868 24.95H22.7887L22.3473 22.7832L17.8503 22.7632L16.6161 24.95H13.1181L13.1176 24.9495ZM19.1363 20.2682H21.7856L21.853 20.152L21.1163 16.2568L19.1358 20.2682H19.1363Z" fill="black"/>
<path d="M32.7686 12.3462L30.554 24.947L29.3837 24.9604C26.219 30.5995 18.7881 32.2297 13.4922 28.459C8.57221 24.9563 7.45128 18.081 10.9668 13.1528C13.8548 9.10432 19.2763 7.49417 23.9205 9.36307C23.9406 9.48859 23.9031 9.47728 23.7961 9.46184C23.4951 9.4176 23.08 9.2427 22.7471 9.17222C13.4988 7.22153 6.64569 17.5846 12.15 25.2737C16.0401 30.7081 24.0656 31.0522 28.395 25.9507C28.6347 25.6682 28.9542 25.2896 29.0653 24.9491H27.2648L29.4768 12.3457H32.7692L32.7686 12.3462Z" fill="#93268F"/>
<path d="M57.1009 19.5474C54.5365 20.2306 51.9006 20.6164 49.2822 21.0398C49.3526 20.0536 49.3989 19.0335 49.2307 18.0566C51.2272 18.3514 53.2309 18.6446 55.2083 19.049C55.7438 19.1585 56.4208 19.2681 56.928 19.4384C56.9954 19.461 57.0849 19.4538 57.1009 19.548V19.5474Z" fill="#93268F"/>
<path d="M19.1878 31.5347C18.4337 33.5327 17.7855 35.574 17.0144 37.5658C16.8508 37.9887 16.6676 38.5257 16.466 38.9198C16.4387 38.9733 16.4933 39.0175 16.359 38.9928L16.3096 31.0959L16.4145 31.0393C17.3117 31.3222 18.249 31.4745 19.1883 31.5342L19.1878 31.5347Z" fill="#93268F"/>
</g>
<defs>
<clipPath id="clip0_1039_205">
<rect width="57.101" height="39" fill="white"/>
</clipPath>
</defs>
</svg>
